<svg id="etmallLogo" data-name="etmallLogo" xmlns="http://www.w3.org/2000/svg" version="1.1" viewBox="0 0 472.04 121.28"><defs><style>.logo__primary{fill:#b60005}.logo__secondary{fill:#f08719}.logo__outer{fill:#fff;stroke:#fff;stroke-miterlimit:10;stroke-width: 8px}</style></defs><g><path class="logo__outer" d="M135.12,33.06v71.26c0,1.44-.28,2.78-.84,4.03-.56,1.25-1.31,2.33-2.24,3.23-.93.91-2.04,1.62-3.32,2.16-1.28.53-2.64.8-4.07.8s-2.78-.27-4.03-.8c-1.25-.53-2.34-1.25-3.28-2.16-.93-.91-1.67-1.98-2.2-3.23-.53-1.25-.8-2.6-.8-4.03V33.06h-21.01c-1.44,0-2.78-.28-4.03-.84-1.25-.56-2.35-1.31-3.28-2.24-.93-.93-1.67-2.04-2.2-3.32-.53-1.28-.8-2.64-.8-4.07s.26-2.78.8-4.03c.53-1.25,1.26-2.34,2.2-3.28.93-.93,2.02-1.67,3.28-2.2,1.25-.53,2.59-.8,4.03-.8h62.79c1.44,0,2.78.28,4.03.84,1.25.56,2.36,1.31,3.31,2.24.96.93,1.7,2.04,2.24,3.32.53,1.28.8,2.64.8,4.07s-.27,2.78-.8,4.03c-.53,1.25-1.28,2.35-2.24,3.28-.96.93-2.06,1.67-3.31,2.2-1.25.53-2.6.8-4.03.8h-21.01Z"/><path class="logo__outer" d="M227.91,103.76c0,1.53-.28,2.94-.85,4.24-.57,1.3-1.35,2.43-2.33,3.39-.99.96-2.14,1.73-3.44,2.29-1.3.57-2.69.85-4.16.85s-2.97-.28-4.33-.85c-1.36-.56-2.55-1.33-3.56-2.29-1.02-.96-1.84-2.09-2.46-3.39-.62-1.3-.93-2.72-.93-4.24v-36.48c-.12-3.17-1.19-5.73-3.22-7.68-2.04-1.95-4.61-2.93-7.72-2.93-1.47,0-2.87.25-4.2.76-1.33.51-2.5,1.22-3.52,2.12-1.02.9-1.83,1.98-2.42,3.22-.59,1.25-.89,2.6-.89,4.07v36.91c0,1.53-.29,2.94-.85,4.24-.57,1.3-1.35,2.43-2.33,3.39-.99.96-2.14,1.73-3.44,2.29-1.3.57-2.69.85-4.16.85s-2.97-.28-4.33-.85c-1.36-.56-2.55-1.33-3.56-2.29-1.02-.96-1.84-2.09-2.46-3.39-.62-1.3-.93-2.72-.93-4.24v-36.74c0-4.47.86-8.67,2.59-12.6,1.72-3.93,4.07-7.37,7.04-10.31,2.97-2.94,6.43-5.26,10.39-6.96,3.96-1.7,8.17-2.55,12.64-2.55s8.36.77,12.17,2.29c3.82,1.53,7.2,3.62,10.14,6.28,3.05-2.66,6.48-4.75,10.27-6.28,3.79-1.53,7.8-2.29,12.05-2.29,4.47,0,8.67.84,12.6,2.5,3.93,1.67,7.35,3.93,10.27,6.79,2.91,2.86,5.26,6.21,7.04,10.05,1.78,3.85,2.76,7.95,2.93,12.3.05.23.08.57.08,1.02v36.48c0,1.53-.28,2.94-.85,4.24-.57,1.3-1.35,2.43-2.33,3.39-.99.96-2.14,1.73-3.44,2.29-1.3.57-2.69.85-4.16.85s-2.97-.28-4.33-.85c-1.36-.56-2.55-1.33-3.56-2.29-1.02-.96-1.84-2.09-2.46-3.39-.62-1.3-.93-2.72-.93-4.24v-36.48c-.06-1.58-.37-3.03-.93-4.33-.57-1.3-1.35-2.42-2.33-3.35-.99-.93-2.15-1.65-3.48-2.16-1.33-.51-2.76-.76-4.28-.76s-2.86.27-4.16.81c-1.3.54-2.45,1.26-3.44,2.16-.99.91-1.8,1.98-2.42,3.22-.62,1.24-.96,2.57-1.02,3.99v36.91Z"/><path class="logo__outer" d="M70.21,53.27c1.42,0,2.73.26,3.93.79,1.21.53,2.26,1.25,3.15,2.17.89.92,1.6,1.98,2.12,3.19.53,1.21.79,2.49.79,3.86s-.26,2.75-.79,4.01c-.52,1.26-1.23,2.36-2.12,3.31-.89.94-1.94,1.71-3.15,2.28-1.21.58-2.52.87-3.93.87h-33.84c-2.94.11-5.31,1.1-7.12,2.99-1.81,1.89-2.71,4.28-2.71,7.16,0,1.37.24,2.66.71,3.9.47,1.23,1.13,2.32,1.97,3.26.84.95,1.84,1.69,2.99,2.24,1.16.55,2.41.83,3.78.83h34.23c1.42,0,2.73.26,3.93.79,1.21.53,2.26,1.25,3.15,2.16.89.92,1.6,1.98,2.12,3.19.53,1.21.79,2.49.79,3.85s-.26,2.75-.79,4.01c-.52,1.26-1.23,2.36-2.12,3.3-.89.95-1.94,1.71-3.15,2.28-1.21.58-2.52.87-3.93.87h-34.07c-4.14,0-8.04-.8-11.69-2.4-3.65-1.6-6.83-3.78-9.56-6.53-2.73-2.75-4.88-5.97-6.45-9.64-1.57-3.67-2.36-7.58-2.36-11.73s.71-7.75,2.13-11.29c1.42-3.54,3.36-6.68,5.82-9.4-2.46-2.83-4.41-6.01-5.82-9.52-1.42-3.51-2.13-7.24-2.13-11.17,0-4.14.78-8.04,2.32-11.69,1.55-3.64,3.65-6.82,6.3-9.52,2.65-2.7,5.76-4.88,9.32-6.53,3.57-1.65,7.37-2.56,11.41-2.72.21-.05.53-.08.95-.08h33.84c1.42,0,2.73.26,3.93.79,1.21.53,2.26,1.25,3.15,2.17s1.6,1.98,2.12,3.19c.53,1.21.79,2.49.79,3.86s-.26,2.75-.79,4.01c-.52,1.26-1.23,2.36-2.12,3.31-.89.94-1.94,1.71-3.15,2.28-1.21.58-2.52.87-3.93.87h-33.84c-1.47.05-2.81.34-4.01.87-1.21.53-2.24,1.25-3.11,2.17-.87.92-1.53,1.99-2.01,3.23-.47,1.23-.71,2.56-.71,3.97s.25,2.65.75,3.85c.5,1.21,1.17,2.27,2.01,3.19.84.92,1.84,1.67,2.99,2.24,1.15.58,2.39.89,3.7.95h34.23Z"/><path class="logo__outer" d="M409.96,92.48c1.58,0,3.04.31,4.37.94,1.33.62,2.48,1.44,3.44,2.46.96,1.02,1.71,2.21,2.25,3.56.54,1.36.8,2.8.8,4.33s-.27,2.96-.8,4.28c-.54,1.33-1.29,2.48-2.25,3.44-.96.96-2.11,1.71-3.44,2.25-1.33.54-2.79.81-4.37.81h-.42c-3.85-.06-7.48-.75-10.9-2.08-3.42-1.33-6.41-3.17-8.95-5.51-2.55-2.35-4.55-5.16-6.02-8.44-1.47-3.28-2.21-6.87-2.21-10.77V16.21c0-1.53.28-2.97.85-4.33.56-1.36,1.33-2.53,2.29-3.52.96-.99,2.08-1.77,3.35-2.33,1.27-.56,2.65-.85,4.11-.85s2.98.28,4.37.85c1.38.57,2.6,1.35,3.65,2.33,1.04.99,1.88,2.16,2.5,3.52.62,1.36.93,2.8.93,4.33v71.52c0,1.7.62,2.91,1.87,3.65,1.24.74,2.77,1.1,4.58,1.1Z"/><path class="logo__outer" d="M453.28,92.48c1.58,0,3.04.31,4.37.94,1.33.62,2.48,1.44,3.44,2.46.96,1.02,1.71,2.21,2.25,3.56.54,1.36.8,2.8.8,4.33s-.27,2.96-.8,4.28c-.54,1.33-1.29,2.48-2.25,3.44-.96.96-2.11,1.71-3.44,2.25-1.33.54-2.79.81-4.37.81h-.42c-3.85-.06-7.48-.75-10.9-2.08-3.42-1.33-6.41-3.17-8.95-5.51-2.55-2.35-4.55-5.16-6.02-8.44-1.47-3.28-2.21-6.87-2.21-10.77V16.21c0-1.53.28-2.97.85-4.33.56-1.36,1.33-2.53,2.29-3.52.96-.99,2.08-1.77,3.35-2.33,1.27-.56,2.64-.85,4.11-.85s2.98.28,4.37.85c1.38.57,2.6,1.35,3.65,2.33,1.04.99,1.88,2.16,2.5,3.52.62,1.36.93,2.8.93,4.33v71.52c0,1.7.62,2.91,1.87,3.65,1.24.74,2.77,1.1,4.58,1.1Z"/><path class="logo__outer" d="M367.91,100.66v-29.11c0-11.53-4.05-20.49-12.16-26.88-8.1-6.39-18.34-9.59-30.7-9.59s-21.95,3.76-29.69,11.28c-7.74,7.52-11.61,16.93-11.61,28.23,0,12.13,3.8,21.7,11.41,28.7,7.04,6.48,15.81,12.13,31.96,11.14,6.74,0,12.2-5.46,12.2-12.2s-5.46-12.2-12.2-12.2c-4.25-.07-10.45-.44-13.66-3.41-3.29-3.05-4.94-7.27-4.94-12.64,0-4.65,1.67-8.53,5.01-11.63,3.34-3.1,7.36-4.65,12.06-4.65,11.69,0,17.53,6.6,17.53,19.79v22.46c-.02.26-.08.51-.08.77,0,6.87,5.57,12.43,12.43,12.43s12.43-5.57,12.43-12.43c0-.01,0-.03,0-.04Z"/></g><g><path class="logo__primary" d="M135.12,33.06v71.26c0,1.44-.28,2.78-.84,4.03-.56,1.25-1.31,2.33-2.24,3.23-.93.91-2.04,1.62-3.32,2.16-1.28.53-2.64.8-4.07.8s-2.78-.27-4.03-.8c-1.25-.53-2.34-1.25-3.28-2.16-.93-.91-1.67-1.98-2.2-3.23-.53-1.25-.8-2.6-.8-4.03V33.06h-21.01c-1.44,0-2.78-.28-4.03-.84-1.25-.56-2.35-1.31-3.28-2.24-.93-.93-1.67-2.04-2.2-3.32-.53-1.28-.8-2.64-.8-4.07s.26-2.78.8-4.03c.53-1.25,1.26-2.34,2.2-3.28.93-.93,2.02-1.67,3.28-2.2,1.25-.53,2.59-.8,4.03-.8h62.79c1.44,0,2.78.28,4.03.84,1.25.56,2.36,1.31,3.31,2.24.96.93,1.7,2.04,2.24,3.32.53,1.28.8,2.64.8,4.07s-.27,2.78-.8,4.03c-.53,1.25-1.28,2.35-2.24,3.28-.96.93-2.06,1.67-3.31,2.2-1.25.53-2.6.8-4.03.8h-21.01Z"/><path class="logo__secondary" d="M227.91,103.76c0,1.53-.28,2.94-.85,4.24-.57,1.3-1.35,2.43-2.33,3.39-.99.96-2.14,1.73-3.44,2.29-1.3.57-2.69.85-4.16.85s-2.97-.28-4.33-.85c-1.36-.56-2.55-1.33-3.56-2.29-1.02-.96-1.84-2.09-2.46-3.39-.62-1.3-.93-2.72-.93-4.24v-36.48c-.12-3.17-1.19-5.73-3.22-7.68-2.04-1.95-4.61-2.93-7.72-2.93-1.47,0-2.87.25-4.2.76-1.33.51-2.5,1.22-3.52,2.12-1.02.9-1.83,1.98-2.42,3.22-.59,1.25-.89,2.6-.89,4.07v36.91c0,1.53-.29,2.94-.85,4.24-.57,1.3-1.35,2.43-2.33,3.39-.99.96-2.14,1.73-3.44,2.29-1.3.57-2.69.85-4.16.85s-2.97-.28-4.33-.85c-1.36-.56-2.55-1.33-3.56-2.29-1.02-.96-1.84-2.09-2.46-3.39-.62-1.3-.93-2.72-.93-4.24v-36.74c0-4.47.86-8.67,2.59-12.6,1.72-3.93,4.07-7.37,7.04-10.31,2.97-2.94,6.43-5.26,10.39-6.96,3.96-1.7,8.17-2.55,12.64-2.55s8.36.77,12.17,2.29c3.82,1.53,7.2,3.62,10.14,6.28,3.05-2.66,6.48-4.75,10.27-6.28,3.79-1.53,7.8-2.29,12.05-2.29,4.47,0,8.67.84,12.6,2.5,3.93,1.67,7.35,3.93,10.27,6.79,2.91,2.86,5.26,6.21,7.04,10.05,1.78,3.85,2.76,7.95,2.93,12.3.05.23.08.57.08,1.02v36.48c0,1.53-.28,2.94-.85,4.24-.57,1.3-1.35,2.43-2.33,3.39-.99.96-2.14,1.73-3.44,2.29-1.3.57-2.69.85-4.16.85s-2.97-.28-4.33-.85c-1.36-.56-2.55-1.33-3.56-2.29-1.02-.96-1.84-2.09-2.46-3.39-.62-1.3-.93-2.72-.93-4.24v-36.48c-.06-1.58-.37-3.03-.93-4.33-.57-1.3-1.35-2.42-2.33-3.35-.99-.93-2.15-1.65-3.48-2.16-1.33-.51-2.76-.76-4.28-.76s-2.86.27-4.16.81c-1.3.54-2.45,1.26-3.44,2.16-.99.91-1.8,1.98-2.42,3.22-.62,1.24-.96,2.57-1.02,3.99v36.91Z"/><path class="logo__primary" d="M70.21,53.27c1.42,0,2.73.26,3.93.79,1.21.53,2.26,1.25,3.15,2.17.89.92,1.6,1.98,2.12,3.19.53,1.21.79,2.49.79,3.86s-.26,2.75-.79,4.01c-.52,1.26-1.23,2.36-2.12,3.31-.89.94-1.94,1.71-3.15,2.28-1.21.58-2.52.87-3.93.87h-33.84c-2.94.11-5.31,1.1-7.12,2.99-1.81,1.89-2.71,4.28-2.71,7.16,0,1.37.24,2.66.71,3.9.47,1.23,1.13,2.32,1.97,3.26.84.95,1.84,1.69,2.99,2.24,1.16.55,2.41.83,3.78.83h34.23c1.42,0,2.73.26,3.93.79,1.21.53,2.26,1.25,3.15,2.16.89.92,1.6,1.98,2.12,3.19.53,1.21.79,2.49.79,3.85s-.26,2.75-.79,4.01c-.52,1.26-1.23,2.36-2.12,3.3-.89.95-1.94,1.71-3.15,2.28-1.21.58-2.52.87-3.93.87h-34.07c-4.14,0-8.04-.8-11.69-2.4-3.65-1.6-6.83-3.78-9.56-6.53-2.73-2.75-4.88-5.97-6.45-9.64-1.57-3.67-2.36-7.58-2.36-11.73s.71-7.75,2.13-11.29c1.42-3.54,3.36-6.68,5.82-9.4-2.46-2.83-4.41-6.01-5.82-9.52-1.42-3.51-2.13-7.24-2.13-11.17,0-4.14.78-8.04,2.32-11.69,1.55-3.64,3.65-6.82,6.3-9.52,2.65-2.7,5.76-4.88,9.32-6.53,3.57-1.65,7.37-2.56,11.41-2.72.21-.05.53-.08.95-.08h33.84c1.42,0,2.73.26,3.93.79,1.21.53,2.26,1.25,3.15,2.17s1.6,1.98,2.12,3.19c.53,1.21.79,2.49.79,3.86s-.26,2.75-.79,4.01c-.52,1.26-1.23,2.36-2.12,3.31-.89.94-1.94,1.71-3.15,2.28-1.21.58-2.52.87-3.93.87h-33.84c-1.47.05-2.81.34-4.01.87-1.21.53-2.24,1.25-3.11,2.17-.87.92-1.53,1.99-2.01,3.23-.47,1.23-.71,2.56-.71,3.97s.25,2.65.75,3.85c.5,1.21,1.17,2.27,2.01,3.19.84.92,1.84,1.67,2.99,2.24,1.15.58,2.39.89,3.7.95h34.23Z"/><path class="logo__secondary" d="M409.96,92.48c1.58,0,3.04.31,4.37.94,1.33.62,2.48,1.44,3.44,2.46.96,1.02,1.71,2.21,2.25,3.56.54,1.36.8,2.8.8,4.33s-.27,2.96-.8,4.28c-.54,1.33-1.29,2.48-2.25,3.44-.96.96-2.11,1.71-3.44,2.25-1.33.54-2.79.81-4.37.81h-.42c-3.85-.06-7.48-.75-10.9-2.08-3.42-1.33-6.41-3.17-8.95-5.51-2.55-2.35-4.55-5.16-6.02-8.44-1.47-3.28-2.21-6.87-2.21-10.77V16.21c0-1.53.28-2.97.85-4.33.56-1.36,1.33-2.53,2.29-3.52.96-.99,2.08-1.77,3.35-2.33,1.27-.56,2.65-.85,4.11-.85s2.98.28,4.37.85c1.38.57,2.6,1.35,3.65,2.33,1.04.99,1.88,2.16,2.5,3.52.62,1.36.93,2.8.93,4.33v71.52c0,1.7.62,2.91,1.87,3.65,1.24.74,2.77,1.1,4.58,1.1Z"/><path class="logo__secondary" d="M453.28,92.48c1.58,0,3.04.31,4.37.94,1.33.62,2.48,1.44,3.44,2.46.96,1.02,1.71,2.21,2.25,3.56.54,1.36.8,2.8.8,4.33s-.27,2.96-.8,4.28c-.54,1.33-1.29,2.48-2.25,3.44-.96.96-2.11,1.71-3.44,2.25-1.33.54-2.79.81-4.37.81h-.42c-3.85-.06-7.48-.75-10.9-2.08-3.42-1.33-6.41-3.17-8.95-5.51-2.55-2.35-4.55-5.16-6.02-8.44-1.47-3.28-2.21-6.87-2.21-10.77V16.21c0-1.53.28-2.97.85-4.33.56-1.36,1.33-2.53,2.29-3.52.96-.99,2.08-1.77,3.35-2.33,1.27-.56,2.64-.85,4.11-.85s2.98.28,4.37.85c1.38.57,2.6,1.35,3.65,2.33,1.04.99,1.88,2.16,2.5,3.52.62,1.36.93,2.8.93,4.33v71.52c0,1.7.62,2.91,1.87,3.65,1.24.74,2.77,1.1,4.58,1.1Z"/><path class="logo__primary" d="M367.91,100.66v-29.11c0-11.53-4.05-20.49-12.16-26.88-8.1-6.39-18.34-9.59-30.7-9.59s-21.95,3.76-29.69,11.28c-7.74,7.52-11.61,16.93-11.61,28.23,0,12.13,3.8,21.7,11.41,28.7,7.04,6.48,15.81,12.13,31.96,11.14,6.74,0,12.2-5.46,12.2-12.2s-5.46-12.2-12.2-12.2c-4.25-.07-10.45-.44-13.66-3.41-3.29-3.05-4.94-7.27-4.94-12.64,0-4.65,1.67-8.53,5.01-11.63,3.34-3.1,7.36-4.65,12.06-4.65,11.69,0,17.53,6.6,17.53,19.79v22.46c-.02.26-.08.51-.08.77,0,6.87,5.57,12.43,12.43,12.43s12.43-5.57,12.43-12.43c0-.01,0-.03,0-.04Z"/></g></svg>